<?xml version="1.0" encoding="utf-8"?>
<!-- Generator: Adobe Illustrator 23.0.3, SVG Export Plug-In . SVG Version: 6.00 Build 0)  -->
<svg version="1.1" id="Calque_1" xmlns="http://www.w3.org/2000/svg" xmlns:xlink="http://www.w3.org/1999/xlink" x="0px" y="0px"
	 viewBox="0 0 1080 782" style="enable-background:new 0 0 1080 782;" xml:space="preserve">
<style type="text/css">
	.st0{display:none;enable-background:new    ;}
	.st1{font-family:'BerlinSansFB-Reg';}
	.st2{font-size:118.885px;}
	.st3{font-family:'VladimirScript';}
	.st4{font-size:358.67px;}
	.st5{font-size:154.504px;}
	.st6{enable-background:new    ;}
</style>
<text id="z" transform="matrix(1 0 0 1 768.9486 481.334)" class="st0 st1 st2">z</text>
<text id="W" transform="matrix(1 0 0 1 174.5923 504.0089)" class="st3 st4">W</text>
<path d="M784.3,311c-57.6,10.6-112.2,15.8-164.2,17.9c-40.5,1.7-55.7,4.4-80.4-0.2c-16.1-3-25.8-10.1-23.7-12.7
	c-7.2,8.6-7.2,16,0.1,22.1c13.3,11.2,52.9,15,118.8,11.7c47.6-2.4,91.5-6.8,131.5-13.4c49.9-8.2,90.6-17.5,122.3-28
	c32.7-10.8,56.8-25.4,72.2-43.8C951.9,275.4,842.6,300.4,784.3,311z"/>
<text id="Ben" transform="matrix(1 0 0 1 509.9985 504.0089)" class="st3 st5">Ben</text>
<text id="Ben_1_" transform="matrix(1 0 0 1 451.9985 504.0089)" class="st3 st5">.</text>
<g>
	<g class="st6">
		<path d="M794.8,493.2c0,0.2-0.3,1.6-0.9,4.1c-0.6,2.7-1,4.5-1,5.1c-0.2,1.4-0.5,2-1,2c-1.4,0-3.2-0.1-5.5-0.2
			c-2.6-0.2-4.4-0.3-5.4-0.3c-2.6-0.1-6.3-0.1-11.1-0.1c-3.8,0-7.9,0.2-12.5,0.5c-5.7,0.4-8.2,0.6-7.4,0.6c-0.8,0-1.3-0.3-1.6-1
			c-0.5-1.9-0.8-4-0.8-6.5c0-0.3,0-0.8,0.1-1.5c0-0.6,0.1-1.1,0.1-1.4c0-0.5,0.4-1.2,1.2-1.9c0.8-0.8,5-5.1,12.4-13.1
			c3.8-3.9,9.1-9.9,16-18.1l-28.6-7c-0.6,0-0.9-0.4-0.9-1.2c0-1.1,0.2-2.8,0.7-5c0.5-2.2,0.7-3.9,0.7-5c0-0.5,0.5-0.7,1.6-0.7
			c2.2,0,39,7.7,40.3,7.8c1,0.1,1.5,0.5,1.5,1.2c0,5.8-0.2,9.1-0.7,9.9c-0.4,0.5-3.7,4.4-10,11.4c-4.1,4.6-10.2,11.5-18.4,20.5
			c12.9-0.3,22.9-0.5,30-0.5C794.3,492.6,794.8,492.8,794.8,493.2z"/>
	</g>
	<path d="M769.2,445.7c0,0,19.9,4.4,23.4,0v8.8l-15.5,3.1L769.2,445.7z"/>
</g>
</svg>
